<?xml version="1.0" encoding="UTF-8" standalone="no"?>
<!DOCTYPE svg PUBLIC "-//W3C//DTD SVG 1.1//EN" "http://www.w3.org/Graphics/SVG/1.1/DTD/svg11.dtd">
<!-- Generated by Microsoft Visio, SVG Export flowchart.svg Page-1 -->
<svg xmlns="http://www.w3.org/2000/svg" xmlns:xlink="http://www.w3.org/1999/xlink" xmlns:ev="http://www.w3.org/2001/xml-events"
		width="9.60641in" height="13.3804in" viewBox="0 0 691.661 963.391" xml:space="preserve" color-interpolation-filters="sRGB"
		class="st12">
	<style type="text/css">
	<![CDATA[
		.st1 {fill:#3b9b91;stroke:#000000;stroke-width:1}
		.st2 {fill:#feffff;font-family:Source Sans Pro;font-size:1.16666em}
		.st3 {fill:#feffff;font-family:Source Sans Pro;font-size:1.5em}
		.st4 {fill:#feffff;font-family:Source Sans Pro;font-size:1.00001em}
		.st5 {font-size:1em}
		.st6 {marker-end:url(#mrkr4-32);stroke:#000000;stroke-linecap:round;stroke-linejoin:round;stroke-width:1.5}
		.st7 {fill:#000000;fill-opacity:1;stroke:#000000;stroke-opacity:1;stroke-width:0.37313432835821}
		.st8 {stroke:#000000;stroke-linecap:round;stroke-linejoin:round;stroke-width:1.5}
		.st9 {marker-start:url(#mrkr13-66);stroke:#000000;stroke-linecap:round;stroke-linejoin:round;stroke-width:1.5}
		.st10 {fill:#feffff;font-family:Calibri;font-size:0.833336em}
		.st11 {fill:#3b9b91;stroke:#000000;stroke-width:1.5}
		.st12 {fill:none;fill-rule:evenodd;font-size:12px;overflow:visible;stroke-linecap:square;stroke-miterlimit:3}
	]]>
	</style>

	<defs id="Markers">
		<g id="lend4">
			<path d="M 2 1 L 0 0 L 2 -1 L 2 1 " style="stroke:none"/>
		</g>
		<marker id="mrkr4-32" class="st7" refX="-5.36" orient="auto" markerUnits="strokeWidth" overflow="visible">
			<use xlink:href="#lend4" transform="scale(-2.68,-2.68) "/>
		</marker>
		<g id="lend13">
			<path d="M 3 1 L 0 0 L 3 -1 L 3 1 " style="stroke:none"/>
		</g>
		<marker id="mrkr13-66" class="st7" refX="7.8" orient="auto" markerUnits="strokeWidth" overflow="visible">
			<use xlink:href="#lend13" transform="scale(2.68) "/>
		</marker>
	</defs>
	<g>
		<title>Page-1</title>
		<g id="shape1-1" transform="translate(253.858,-741.725)">
			<title>Rectangle</title>
			<desc>Initialize BTSTACK</desc>
			<rect x="0" y="890.126" width="198.425" height="73.2647" class="st1"/>
			<text x="45.64" y="930.96" class="st2">Initialize BTSTACK</text>		</g>
		<g id="shape2-4" transform="translate(286.457,-855.572)">
			<title>Ellipse</title>
			<desc>Main ()</desc>
			<path d="M0 918.98 A66.6142 44.4094 0 0 1 133.23 918.98 A66.6142 44.4094 0 1 1 0 918.98 Z" class="st1"/>
			<text x="41.14" y="924.38" class="st3">Main ()</text>		</g>
		<g id="shape3-7" transform="translate(253.858,-627.877)">
			<title>Rectangle.3</title>
			<desc>Initialize GATT database</desc>
			<rect x="0" y="890.126" width="198.425" height="73.2647" class="st1"/>
			<text x="28.71" y="930.96" class="st2">Initialize GATT database</text>		</g>
		<g id="shape4-10" transform="translate(253.858,-514.03)">
			<title>Rectangle.4</title>
			<desc>Start LE Advertisements</desc>
			<rect x="0" y="890.126" width="198.425" height="73.2647" class="st1"/>
			<text x="29.14" y="930.96" class="st2">Start LE Advertisements</text>		</g>
		<g id="shape5-13" transform="translate(264.488,-367.148)">
			<title>Decision</title>
			<desc>Is connected to Peer ?</desc>
			<path d="M0 910.24 L88.58 857.09 L177.17 910.24 L88.58 963.39 L0 910.24 Z" class="st1"/>
			<text x="24.71" y="914.44" class="st2">Is connected to Peer ?</text>		</g>
		<g id="shape6-16" transform="translate(264.488,-233.887)">
			<title>Decision.6</title>
			<desc>First characteristic selected?</desc>
			<path d="M0 910.24 L88.58 857.09 L177.17 910.24 L88.58 963.39 L0 910.24 Z" class="st1"/>
			<text x="17.32" y="913.84" class="st4">First characteristic selected?</text>		</g>
		<g id="shape7-19" transform="translate(19,-166.112)">
			<title>Rectangle.7</title>
			<desc>Send notification to central device</desc>
			<rect x="0" y="890.126" width="198.425" height="73.2647" class="st1"/>
			<text x="19.42" y="922.56" class="st2">Send notification to central <tspan x="80.2" dy="1.2em" class="st5">device</tspan></text>		</g>
		<g id="shape8-23" transform="translate(474.236,-19)">
			<title>Rectangle.8</title>
			<desc>Write number of times to blink the LED on the peripheral device</desc>
			<rect x="0" y="890.126" width="198.425" height="73.2647" class="st1"/>
			<text x="10.54" y="922.56" class="st2">Write number of times to blink <tspan x="4.48" dy="1.2em" class="st5">the LED on the peripheral device</tspan></text>		</g>
		<g id="shape10-27" transform="translate(345.984,-741.725)">
			<title>Dynamic connector.10</title>
			<path d="M7.09 963.39 L7.09 995.93" class="st6"/>
		</g>
		<g id="shape11-33" transform="translate(345.984,-627.877)">
			<title>Dynamic connector.11</title>
			<path d="M7.09 963.39 L7.09 995.93" class="st6"/>
		</g>
		<g id="shape12-38" transform="translate(345.984,-514.03)">
			<title>Dynamic connector.12</title>
			<path d="M7.09 963.39 L7.09 995.93" class="st6"/>
		</g>
		<g id="shape13-43" transform="translate(345.984,-367.148)">
			<title>Dynamic connector.13</title>
			<path d="M7.09 963.39 L7.09 982.31" class="st6"/>
		</g>
		<g id="shape14-48" transform="translate(264.488,-287.037)">
			<title>Dynamic connector.14</title>
			<path d="M0 963.39 L-146.28 963.39 L-146.28 1003.01" class="st6"/>
		</g>
		<g id="shape15-53" transform="translate(345.984,-233.887)">
			<title>Dynamic connector.15</title>
			<path d="M7.09 963.39 L7.09 976.61" class="st6"/>
		</g>
		<g id="shape16-58" transform="translate(353.071,-354.36)">
			<title>Dynamic connector.16</title>
			<path d="M0 963.39 L-117.64 963.39 L-117.64 821.66" class="st8"/>
		</g>
		<g id="shape17-61" transform="translate(353.071,-489.005)">
			<title>Dynamic connector.17</title>
			<path d="M-11.7 956.3 L-12.06 956.3 L-117.64 956.3" class="st9"/>
		</g>
		<g id="shape18-67" transform="translate(329.172,-187.735)">
			<title>Rectangle.18</title>
			<desc>NO</desc>
			<rect x="0" y="938.498" width="47.7978" height="24.8927" class="st1"/>
			<text x="17.36" y="953.94" class="st10">NO</text>		</g>
		<g id="shape21-70" transform="translate(149.368,-290.601)">
			<title>Rectangle.21</title>
			<desc>Yes</desc>
			<rect x="0" y="938.498" width="47.7978" height="24.8927" class="st1"/>
			<text x="15.55" y="954.55" class="st4">Yes</text>		</g>
		<g id="shape23-73" transform="translate(361.966,-341.958)">
			<title>Rectangle.23</title>
			<desc>Yes</desc>
			<rect x="0" y="938.498" width="47.7978" height="24.8927" class="st11"/>
			<text x="15.55" y="954.55" class="st4">Yes</text>		</g>
		<g id="shape24-76" transform="translate(239.685,-361.446)">
			<title>Rectangle.24</title>
			<desc>No</desc>
			<rect x="0" y="938.498" width="47.7978" height="24.8927" class="st1"/>
			<text x="16.76" y="954.55" class="st4">No</text>		</g>
		<g id="shape9-79" transform="translate(345.984,-855.572)">
			<title>Dynamic connector</title>
			<path d="M7.09 963.39 L7.09 995.93" class="st6"/>
		</g>
		<g id="shape26-84" transform="translate(264.488,-60.1757)">
			<title>Decision.26</title>
			<desc>Second Characteristic selected?</desc>
			<path d="M0 910.24 L88.58 857.09 L177.17 910.24 L88.58 963.39 L0 910.24 Z" class="st1"/>
			<text x="24.59" y="906.04" class="st2">Second Characteristic <tspan x="61.03" dy="1.2em" class="st5">selected?</tspan></text>		</g>
		<g id="shape27-88" transform="translate(441.654,-113.325)">
			<title>Dynamic connector.27</title>
			<path d="M0 963.39 L131.8 963.39 L131.8 976.41" class="st6"/>
		</g>
		<g id="shape28-93" transform="translate(502.583,-116.332)">
			<title>Rectangle.28</title>
			<desc>Yes</desc>
			<rect x="0" y="938.498" width="47.7978" height="24.8927" class="st1"/>
			<text x="15.55" y="954.55" class="st4">Yes</text>		</g>
		<g id="shape29-96" transform="translate(345.984,-187.735)">
			<title>Dynamic connector.29</title>
			<path d="M7.09 963.39 L7.09 976.61" class="st6"/>
		</g>
	</g>
</svg>
